HIERARCHY
ROOT Hips
{
	OFFSET -0.001795 -0.223333 0.028219
	CHANNELS 6 Xposition Yposition Zposition Zrotation Yrotation Xrotation 
	JOINT LeftUpLeg
	{
		OFFSET 0.069520 -0.091406 -0.006815
		CHANNELS 3 Zrotation Yrotation Xrotation
		JOINT LeftLeg
		{
			OFFSET 0.034277 -0.375199 -0.004496
			CHANNELS 3 Zrotation Yrotation Xrotation
			JOINT LeftFoot
			{
				OFFSET -0.013596 -0.397961 -0.043693
				CHANNELS 3 Zrotation Yrotation Xrotation
				JOINT LeftToe
				{
					OFFSET 0.026358 -0.055791 0.119288
					CHANNELS 3 Zrotation Yrotation Xrotation
					End Site
					{
						OFFSET 0.000000 0.000000 0.000000
					}
				}
			}
		}
	}
	JOINT RightUpLeg
	{
		OFFSET -0.067670 -0.090522 -0.004320
		CHANNELS 3 Zrotation Yrotation Xrotation
		JOINT RightLeg
		{
			OFFSET -0.038290 -0.382569 -0.008850
			CHANNELS 3 Zrotation Yrotation Xrotation
			JOINT RightFoot
			{
				OFFSET 0.015774 -0.398415 -0.042312
				CHANNELS 3 Zrotation Yrotation Xrotation
				JOINT RightToe
				{
					OFFSET -0.025372 -0.048144 0.123348
					CHANNELS 3 Zrotation Yrotation Xrotation
					End Site
					{
						OFFSET 0.000000 0.000000 0.000000
					}
				}
			}
		}
	}
	JOINT Spine
	{
		OFFSET -0.002533 0.108963 -0.026696
		CHANNELS 3 Zrotation Yrotation Xrotation
		JOINT Spine1
		{
			OFFSET 0.005487 0.135180 0.001092
			CHANNELS 3 Zrotation Yrotation Xrotation
			JOINT Spine2
			{
				OFFSET 0.001457 0.052922 0.025425
				CHANNELS 3 Zrotation Yrotation Xrotation
				JOINT Neck
				{
					OFFSET -0.002778 0.213870 -0.042857
					CHANNELS 3 Zrotation Yrotation Xrotation
					JOINT Head
					{
						OFFSET 0.005152 0.064970 0.051349
						CHANNELS 3 Zrotation Yrotation Xrotation
						End Site
						{
							OFFSET 0.000000 0.000000 0.000000
						}
					}
				}
				JOINT LeftShoulder
				{
					OFFSET 0.078845 0.121749 -0.034090
					CHANNELS 3 Zrotation Yrotation Xrotation
					JOINT LeftArm
					{
						OFFSET 0.090977 0.030469 -0.008868
						CHANNELS 3 Zrotation Yrotation Xrotation
						JOINT LeftForeArm
						{
							OFFSET 0.259612 -0.012772 -0.027456
							CHANNELS 3 Zrotation Yrotation Xrotation
							JOINT LeftHand
							{
								OFFSET 0.249234 0.008986 -0.001171
								CHANNELS 3 Zrotation Yrotation Xrotation
								End Site
								{
									OFFSET 0.000000 0.000000 0.000000
								}
							}
						}
					}
				}
				JOINT RightShoulder
				{
					OFFSET -0.081759 0.118833 -0.038615
					CHANNELS 3 Zrotation Yrotation Xrotation
					JOINT RightArm
					{
						OFFSET -0.096012 0.032551 -0.009143
						CHANNELS 3 Zrotation Yrotation Xrotation
						JOINT RightForeArm
						{
							OFFSET -0.253742 -0.013329 -0.021401
							CHANNELS 3 Zrotation Yrotation Xrotation
							JOINT RightHand
							{
								OFFSET -0.255298 0.007772 -0.005559
								CHANNELS 3 Zrotation Yrotation Xrotation
								End Site
								{
									OFFSET 0.000000 0.000000 0.000000
								}
							}
						}
					}
				}
			}
		}
	}
}
MOTION
Frames: 13
Frame Time: 0.050000
-0.363327 0.935079 1.094846 1.284431 -5.067700 4.454020 4.932227 -0.021499 0.899440 -4.180648 0.490036 -5.374772 2.233803 5.975650 4.367749 0.000000 0.000000 0.000000 0.664297 0.409266 -4.261683 -2.720867 0.392215 2.017832 1.050424 4.561300 -2.591977 0.000000 0.000000 0.000000 6.697755 0.053505 -2.023924 8.748490 -4.486476 3.907877 -11.660221 -2.060210 5.521614 8.894520 -4.345207 -16.685095 0.000000 0.000000 0.000000 -19.581925 -22.439695 11.295421 -24.314614 -30.312182 2.113034 36.896808 -41.662190 -12.190006 0.000000 0.000000 0.000000 21.443116 -4.223721 -5.043575 45.193466 -13.162144 -8.757272 26.672120 51.520657 14.081156 0.000000 0.000000 0.000000 
-0.362769 0.935220 1.094989 1.367282 -4.649911 4.457107 4.907068 -0.025312 0.907619 -4.229776 0.489317 -5.669430 2.052524 5.745295 4.765935 0.000000 0.000000 0.000000 0.608455 0.381576 -3.982144 -2.799077 0.374944 1.604786 1.080721 4.414089 -2.310699 0.000000 0.000000 0.000000 6.600452 0.060262 -2.108903 8.818778 -4.529594 3.859290 -11.553618 -1.760542 5.652821 9.130200 -4.462967 -16.600466 0.000000 0.000000 0.000000 -19.621523 -22.182594 11.010950 -24.526580 -29.858081 2.087503 37.317705 -42.535122 -12.703853 0.000000 0.000000 0.000000 21.334673 -4.425663 -5.001988 45.720378 -13.282963 -8.961928 25.251787 50.829896 13.282370 0.000000 0.000000 0.000000 
-0.362220 0.935369 1.095254 1.470840 -4.293165 4.585110 4.789238 -0.033293 0.818999 -4.150736 0.480122 -5.888139 1.858347 5.424667 4.898498 0.000000 0.000000 0.000000 0.408851 0.382963 -3.970848 -2.750013 0.354945 1.370246 1.018563 4.121141 -2.163899 0.000000 0.000000 0.000000 6.729084 0.060258 -2.155977 8.807084 -4.518687 3.730348 -11.644974 -1.562590 5.660384 9.288104 -4.523495 -16.581059 0.000000 0.000000 0.000000 -19.495252 -21.809398 10.654048 -24.847358 -29.436580 2.088643 37.712926 -43.383102 -13.198887 0.000000 0.000000 0.000000 21.338871 -4.868748 -5.143867 45.965386 -13.568263 -9.139549 25.036440 50.771695 13.245246 0.000000 0.000000 0.000000 
-0.361756 0.935384 1.095436 1.534690 -3.980678 4.659919 4.753846 -0.043953 0.686567 -4.070530 0.471189 -5.796089 1.640315 5.032431 4.934573 0.000000 0.000000 0.000000 0.262161 0.374385 -3.866631 -2.693335 0.346628 1.320598 0.902326 3.725219 -2.070060 0.000000 0.000000 0.000000 6.818818 0.064449 -2.230278 8.638300 -4.420315 3.534886 -11.435063 -1.542829 5.802410 9.185575 -4.442468 -16.671476 0.000000 0.000000 0.000000 -19.820128 -21.328887 10.400807 -24.981976 -29.302859 2.082003 37.870168 -43.910135 -13.455426 0.000000 0.000000 0.000000 21.192829 -5.251179 -5.298805 46.424407 -13.915698 -9.388833 24.805874 50.475117 13.071982 0.000000 0.000000 0.000000 
-0.361464 0.935301 1.095352 1.649997 -3.902538 4.784150 4.733555 -0.059978 0.427122 -4.184419 0.477823 -5.650989 1.511622 4.810595 5.007936 0.000000 0.000000 0.000000 0.050527 0.390246 -4.003960 -2.493619 0.324526 1.316149 0.771305 3.304540 -1.982915 0.000000 0.000000 0.000000 6.690272 0.071905 -2.337167 8.689273 -4.430911 3.388606 -11.526355 -1.364248 5.851293 9.393846 -4.591132 -16.414592 0.000000 0.000000 0.000000 -19.421702 -21.001608 10.082554 -25.502532 -29.355594 2.189025 37.984763 -43.608424 -13.424417 0.000000 0.000000 0.000000 21.203401 -5.607821 -5.437206 46.611636 -14.245724 -9.565778 24.406481 50.480641 12.934208 0.000000 0.000000 0.000000 
-0.361406 0.935137 1.094949 1.673933 -3.817648 4.947925 4.912964 -0.086643 0.035263 -4.500147 0.498717 -5.502858 1.358515 4.540613 5.073369 0.000000 0.000000 0.000000 0.024727 0.410782 -4.205780 -2.463373 0.339561 1.602713 0.508556 2.511788 -1.867789 0.000000 0.000000 0.000000 6.779446 0.065702 -2.322032 8.492729 -4.299856 3.086641 -11.355387 -1.461525 6.145627 9.296921 -4.559310 -16.404922 0.000000 0.000000 0.000000 -19.879072 -20.674364 10.015608 -25.476197 -29.698604 2.220967 38.339948 -43.305271 -13.443407 0.000000 0.000000 0.000000 21.651802 -5.750259 -5.630763 46.674474 -14.362995 -9.635560 23.387860 50.234396 12.361180 0.000000 0.000000 0.000000 
-0.361514 0.934880 1.094311 1.643390 -3.790057 4.925730 5.146193 -0.099963 -0.162648 -4.814692 0.521597 -5.307732 1.425510 4.701538 5.182634 0.000000 0.000000 0.000000 -0.003607 0.426519 -4.360181 -2.299430 0.351815 2.091423 0.266811 1.859391 -1.867306 0.000000 0.000000 0.000000 6.647283 0.061354 -2.273066 8.574508 -4.342023 3.088966 -11.432277 -1.490946 6.148402 9.355946 -4.544888 -16.697173 0.000000 0.000000 0.000000 -19.845694 -20.570636 9.950918 -25.759333 -30.221699 2.367839 38.590313 -42.720110 -13.337958 0.000000 0.000000 0.000000 21.707524 -5.765864 -5.649114 47.218424 -14.577036 -9.846869 22.056686 49.805935 11.619726 0.000000 0.000000 0.000000 
-0.361724 0.934684 1.093543 1.553550 -3.789469 4.983857 5.343208 -0.115706 -0.420407 -4.985648 0.535313 -5.092193 1.697225 5.260982 5.338706 0.000000 0.000000 0.000000 0.191051 0.442342 -4.526922 -2.186247 0.365975 2.533607 0.173288 1.536758 -1.757937 0.000000 0.000000 0.000000 6.564025 0.058357 -2.256091 8.765126 -4.441870 3.141606 -11.360405 -1.624536 6.044327 9.408575 -4.573011 -16.758422 0.000000 0.000000 0.000000 -20.082714 -20.534444 10.001989 -25.935553 -30.493654 2.448428 39.184853 -42.608872 -13.524022 0.000000 0.000000 0.000000 21.919398 -5.731680 -5.709101 47.516971 -14.498322 -9.874268 20.093285 49.085302 10.500128 0.000000 0.000000 0.000000 
-0.361946 0.934427 1.092656 1.500760 -3.889342 4.986860 5.411143 -0.124898 -0.623867 -5.001668 0.539743 -4.812245 1.923270 5.641513 5.183939 0.000000 0.000000 0.000000 0.110024 0.454078 -4.641257 -1.762843 0.330643 2.800619 0.144213 1.421473 -1.696586 0.000000 0.000000 0.000000 6.500567 0.048709 -2.156295 8.691487 -4.392498 3.056662 -11.195342 -1.903701 6.024825 9.422404 -4.588122 -16.912707 0.000000 0.000000 0.000000 -20.587523 -20.566211 10.213157 -25.894522 -30.786500 2.470407 39.832509 -42.254397 -13.610246 0.000000 0.000000 0.000000 22.028754 -5.455712 -5.675421 48.048316 -14.734747 -10.074598 18.171656 48.215931 9.364288 0.000000 0.000000 0.000000 
-0.362113 0.934500 1.091636 1.321292 -4.381938 5.098340 5.530600 -0.143008 -1.092308 -5.008719 0.548003 -4.556019 2.387678 6.484473 5.137270 0.000000 0.000000 0.000000 0.256316 0.459677 -4.714373 -1.696769 0.327280 2.895291 0.099753 1.370600 -1.779870 0.000000 0.000000 0.000000 6.631253 0.048234 -2.159476 8.609357 -4.344343 3.132086 -11.033956 -1.976625 5.907302 9.669502 -4.699156 -17.282128 0.000000 0.000000 0.000000 -20.955619 -20.457113 10.313695 -26.478777 -31.032214 2.598853 40.769357 -42.080817 -13.872874 0.000000 0.000000 0.000000 22.360646 -5.203514 -5.694439 48.314968 -14.649145 -10.081470 15.968021 46.993318 8.086207 0.000000 0.000000 0.000000 
-0.362270 0.934432 1.090551 1.133768 -4.831787 5.195243 5.635709 -0.152263 -1.377325 -5.014910 0.556651 -4.160527 2.829590 7.220402 4.783658 0.000000 0.000000 0.000000 0.477082 0.456147 -4.702986 -1.599690 0.318330 2.953472 0.147917 1.470709 -1.716254 0.000000 0.000000 0.000000 6.890393 0.048167 -2.168277 8.455117 -4.269014 3.279296 -10.796868 -2.113582 5.980059 9.915764 -4.811365 -17.717309 0.000000 0.000000 0.000000 -21.377804 -20.923831 10.804068 -26.690189 -31.079136 2.602579 42.319223 -41.265489 -14.127126 0.000000 0.000000 0.000000 22.535689 -4.720754 -5.571934 48.652724 -14.397511 -10.050502 13.380177 45.942998 6.743520 0.000000 0.000000 0.000000 
-0.362430 0.934570 1.089496 0.822085 -5.582322 5.314035 5.940568 -0.148904 -1.481226 -5.291974 0.592227 -3.921182 3.427513 8.240257 4.319084 0.000000 0.000000 0.000000 0.892106 0.470738 -4.883878 -1.548183 0.321876 3.137999 0.376017 2.256961 -1.938842 0.000000 0.000000 0.000000 7.242737 0.048115 -2.169493 8.436543 -4.282966 3.759833 -10.703958 -2.466025 5.587511 10.427909 -5.096261 -18.057779 0.000000 0.000000 0.000000 -21.887218 -21.240379 11.303280 -26.863777 -30.589235 2.495005 43.698488 -40.579419 -14.319409 0.000000 0.000000 0.000000 23.171867 -4.017157 -5.509317 48.340884 -14.121078 -9.787338 11.192598 45.057470 5.600832 0.000000 0.000000 0.000000 
-0.362601 0.934488 1.088610 0.680188 -6.221050 5.369091 6.031375 -0.142986 -1.520214 -5.334471 0.606087 -3.723315 4.049670 9.403035 4.238990 0.000000 0.000000 0.000000 1.099782 0.491385 -5.103845 -1.398687 0.319221 3.415219 0.618461 2.859612 -1.841616 0.000000 0.000000 0.000000 7.529093 0.037590 -2.064718 8.415902 -4.276483 4.018367 -10.550739 -3.097614 5.401613 10.547251 -5.161233 -18.529756 0.000000 0.000000 0.000000 -22.233495 -21.117538 11.624755 -27.174832 -30.359118 2.422314 44.963058 -39.554986 -14.255790 0.000000 0.000000 0.000000 23.183836 -3.436137 -5.480901 48.292039 -13.939011 -9.627689 10.154378 44.593832 4.968225 0.000000 0.000000 0.000000 
